{
    "asset" : {
        "generator" : "Khronos glTF Blender I/O v1.6.16",
        "version" : "2.0"
    },
    "scene" : 0,
    "scenes" : [
        {
            "name" : "Scene",
            "nodes" : [
                0,
                1
            ]
        }
    ],
    "nodes" : [
        {
            "name" : "Camera",
            "rotation" : [
                0.483536034822464,
                0.33687159419059753,
                -0.20870360732078552,
                0.7804827094078064
            ],
            "translation" : [
                7.358891487121582,
                4.958309173583984,
                6.925790786743164
            ]
        },
        {
            "mesh" : 0,
            "name" : "uploads_files_2371584_dr+scrubs.002",
            "rotation" : [
                0.7071068286895752,
                0,
                0,
                0.7071067094802856
            ],
            "scale" : [
                0.047443680465221405,
                0.05563749745488167,
                0.050776246935129166
            ]
        }
    ],
    "materials" : [
        {
            "doubleSided" : true,
            "name" : "wire_204204204.002",
            "pbrMetallicRoughness" : {
                "baseColorFactor" : [
                    0.800000011920929,
                    0.800000011920929,
                    0.800000011920929,
                    1
                ],
                "metallicFactor" : 0,
                "roughnessFactor" : 0.5
            }
        }
    ],
    "meshes" : [
        {
            "name" : "uploads_files_2371584_dr+scrubs.002",
            "primitives" : [
                {
                    "attributes" : {
                        "POSITION" : 0,
                        "NORMAL" : 1,
                        "TEXCOORD_0" : 2
                    },
                    "indices" : 3,
                    "material" : 0
                }
            ]
        }
    ],
    "accessors" : [
        {
            "bufferView" : 0,
            "componentType" : 5126,
            "count" : 13721,
            "max" : [
                355.5513916015625,
                244.53860473632812,
                10.170999526977539
            ],
            "min" : [
                -367.0914001464844,
                -248.73410034179688,
                -1718.0546875
            ],
            "type" : "VEC3"
        },
        {
            "bufferView" : 1,
            "componentType" : 5126,
            "count" : 13721,
            "type" : "VEC3"
        },
        {
            "bufferView" : 2,
            "componentType" : 5126,
            "count" : 13721,
            "type" : "VEC2"
        },
        {
            "bufferView" : 3,
            "componentType" : 5123,
            "count" : 66972,
            "type" : "SCALAR"
        }
    ],
    "bufferViews" : [
        {
            "buffer" : 0,
            "byteLength" : 164652,
            "byteOffset" : 0
        },
        {
            "buffer" : 0,
            "byteLength" : 164652,
            "byteOffset" : 164652
        },
        {
            "buffer" : 0,
            "byteLength" : 109768,
            "byteOffset" : 329304
        },
        {
            "buffer" : 0,
            "byteLength" : 133944,
            "byteOffset" : 439072
        }
    ],
    "buffers" : [
        {
            "byteLength" : 573016,
            "uri" : "data:application/octet-stream;base64,"
        }
    ]
}
