{
    "asset" : {
        "generator" : "Khronos glTF Blender I/O v1.6.16",
        "version" : "2.0"
    },
    "scene" : 0,
    "scenes" : [
        {
            "name" : "Scene",
            "nodes" : [
                0,
                1,
                2,
                3,
                4,
                5,
                6
            ]
        }
    ],
    "nodes" : [
        {
            "name" : "Light",
            "rotation" : [
                0.16907575726509094,
                0.7558803558349609,
                -0.27217137813568115,
                0.570947527885437
            ],
            "scale" : [
                0.15639153122901917,
                0.17761220037937164,
                0.2404814511537552
            ],
            "translation" : [
                1.9459842443466187,
                1.8724091053009033,
                0.7008894085884094
            ]
        },
        {
            "name" : "Camera",
            "rotation" : [
                0.483536034822464,
                0.33687159419059753,
                -0.20870360732078552,
                0.7804827094078064
            ],
            "scale" : [
                0.32059624791145325,
                0.2950647473335266,
                0.1288958042860031
            ],
            "translation" : [
                2.365804672241211,
                1.8027395009994507,
                1.3215750455856323
            ]
        },
        {
            "mesh" : 0,
            "name" : "drug_Cylinder.004",
            "rotation" : [
                0.7071068286895752,
                0,
                0,
                0.7071067094802856
            ],
            "scale" : [
                0.12789082527160645,
                0.07825826108455658,
                0.07368127256631851
            ],
            "translation" : [
                1.424669861793518,
                1.437404990196228,
                0.779574453830719
            ]
        },
        {
            "mesh" : 1,
            "name" : "Cylinder.003",
            "rotation" : [
                0.7071068286895752,
                0,
                0,
                0.7071067094802856
            ],
            "scale" : [
                0.12789082527160645,
                0.07825826108455658,
                0.07368127256631851
            ],
            "translation" : [
                1.424669861793518,
                1.437404990196228,
                0.779574453830719
            ]
        },
        {
            "mesh" : 2,
            "name" : "Cylinder.002",
            "rotation" : [
                0.7071068286895752,
                0,
                0,
                0.7071067094802856
            ],
            "scale" : [
                0.12789082527160645,
                0.07825826108455658,
                0.07368127256631851
            ],
            "translation" : [
                1.424669861793518,
                1.437404990196228,
                0.779574453830719
            ]
        },
        {
            "mesh" : 3,
            "name" : "Cylinder.001",
            "rotation" : [
                0.7071068286895752,
                0,
                0,
                0.7071067094802856
            ],
            "scale" : [
                0.12789082527160645,
                0.07825826108455658,
                0.07368127256631851
            ],
            "translation" : [
                1.424669861793518,
                1.437404990196228,
                0.779574453830719
            ]
        },
        {
            "mesh" : 4,
            "name" : "Cylinder",
            "rotation" : [
                0.7071068286895752,
                0,
                0,
                0.7071067094802856
            ],
            "scale" : [
                0.12789082527160645,
                0.07825826108455658,
                0.07368127256631851
            ],
            "translation" : [
                1.424669861793518,
                1.437404990196228,
                0.779574453830719
            ]
        }
    ],
    "materials" : [
        {
            "doubleSided" : true,
            "name" : "drug",
            "pbrMetallicRoughness" : {
                "baseColorFactor" : [
                    0.800000011920929,
                    0.800000011920929,
                    0.800000011920929,
                    1
                ],
                "metallicFactor" : 0,
                "roughnessFactor" : 0.5
            }
        },
        {
            "doubleSided" : true,
            "name" : "None",
            "pbrMetallicRoughness" : {
                "baseColorFactor" : [
                    0.800000011920929,
                    0.800000011920929,
                    0.800000011920929,
                    1
                ],
                "metallicFactor" : 0,
                "roughnessFactor" : 0.5
            }
        },
        {
            "doubleSided" : true,
            "name" : "Material.001",
            "pbrMetallicRoughness" : {
                "baseColorFactor" : [
                    0.800000011920929,
                    0.800000011920929,
                    0.800000011920929,
                    1
                ],
                "metallicFactor" : 0,
                "roughnessFactor" : 0.5
            }
        },
        {
            "doubleSided" : true,
            "name" : "needle",
            "pbrMetallicRoughness" : {
                "baseColorFactor" : [
                    0.800000011920929,
                    0.800000011920929,
                    0.800000011920929,
                    1
                ],
                "metallicFactor" : 0,
                "roughnessFactor" : 0.5
            }
        },
        {
            "doubleSided" : true,
            "name" : "Material.002",
            "pbrMetallicRoughness" : {
                "baseColorFactor" : [
                    0.800000011920929,
                    0.800000011920929,
                    0.800000011920929,
                    1
                ],
                "metallicFactor" : 0,
                "roughnessFactor" : 0.5
            }
        }
    ],
    "meshes" : [
        {
            "name" : "drug_Cylinder.004",
            "primitives" : [
                {
                    "attributes" : {
                        "POSITION" : 0,
                        "NORMAL" : 1
                    },
                    "indices" : 2,
                    "material" : 0
                }
            ]
        },
        {
            "name" : "Cylinder.003",
            "primitives" : [
                {
                    "attributes" : {
                        "POSITION" : 3,
                        "NORMAL" : 4
                    },
                    "indices" : 5,
                    "material" : 1
                }
            ]
        },
        {
            "name" : "Cylinder.002",
            "primitives" : [
                {
                    "attributes" : {
                        "POSITION" : 6,
                        "NORMAL" : 7
                    },
                    "indices" : 8,
                    "material" : 2
                },
                {
                    "attributes" : {
                        "POSITION" : 9,
                        "NORMAL" : 10
                    },
                    "indices" : 11,
                    "material" : 3
                }
            ]
        },
        {
            "name" : "Cylinder.001",
            "primitives" : [
                {
                    "attributes" : {
                        "POSITION" : 12,
                        "NORMAL" : 13
                    },
                    "indices" : 14,
                    "material" : 2
                }
            ]
        },
        {
            "name" : "Cylinder",
            "primitives" : [
                {
                    "attributes" : {
                        "POSITION" : 15,
                        "NORMAL" : 16
                    },
                    "indices" : 17,
                    "material" : 2
                },
                {
                    "attributes" : {
                        "POSITION" : 18,
                        "NORMAL" : 19
                    },
                    "indices" : 20,
                    "material" : 4
                }
            ]
        }
    ],
    "accessors" : [
        {
            "bufferView" : 0,
            "componentType" : 5126,
            "count" : 96,
            "max" : [
                2.5953359603881836,
                1.2750400304794312,
                1.2750420570373535
            ],
            "min" : [
                -4.2666850090026855,
                -1.27504301071167,
                -1.2750409841537476
            ],
            "type" : "VEC3"
        },
        {
            "bufferView" : 1,
            "componentType" : 5126,
            "count" : 96,
            "type" : "VEC3"
        },
        {
            "bufferView" : 2,
            "componentType" : 5123,
            "count" : 564,
            "type" : "SCALAR"
        },
        {
            "bufferView" : 3,
            "componentType" : 5126,
            "count" : 256,
            "max" : [
                6.382812976837158,
                4.86656379699707,
                1.4358680248260498
            ],
            "min" : [
                6.272812843322754,
                -4.866560935974121,
                -1.4358680248260498
            ],
            "type" : "VEC3"
        },
        {
            "bufferView" : 4,
            "componentType" : 5126,
            "count" : 256,
            "type" : "VEC3"
        },
        {
            "bufferView" : 5,
            "componentType" : 5123,
            "count" : 768,
            "type" : "SCALAR"
        },
        {
            "bufferView" : 6,
            "componentType" : 5126,
            "count" : 192,
            "max" : [
                -4.534025192260742,
                0.515720009803772,
                0.5157210230827332
            ],
            "min" : [
                -5.561906814575195,
                -0.5157210230827332,
                -0.515720009803772
            ],
            "type" : "VEC3"
        },
        {
            "bufferView" : 7,
            "componentType" : 5126,
            "count" : 192,
            "type" : "VEC3"
        },
        {
            "bufferView" : 8,
            "componentType" : 5123,
            "count" : 576,
            "type" : "SCALAR"
        },
        {
            "bufferView" : 9,
            "componentType" : 5126,
            "count" : 128,
            "max" : [
                -5.561906814575195,
                0.08632899820804596,
                0.08632999658584595
            ],
            "min" : [
                -17.026769638061523,
                -0.08632999658584595,
                -0.08632899820804596
            ],
            "type" : "VEC3"
        },
        {
            "bufferView" : 10,
            "componentType" : 5126,
            "count" : 128,
            "type" : "VEC3"
        },
        {
            "bufferView" : 11,
            "componentType" : 5123,
            "count" : 474,
            "type" : "SCALAR"
        },
        {
            "bufferView" : 12,
            "componentType" : 5126,
            "count" : 550,
            "max" : [
                13.465497970581055,
                2.7497200965881348,
                1.3798389434814453
            ],
            "min" : [
                2.5875539779663086,
                -2.749717950820923,
                -1.3798389434814453
            ],
            "type" : "VEC3"
        },
        {
            "bufferView" : 13,
            "componentType" : 5126,
            "count" : 550,
            "type" : "VEC3"
        },
        {
            "bufferView" : 14,
            "componentType" : 5123,
            "count" : 1740,
            "type" : "SCALAR"
        },
        {
            "bufferView" : 15,
            "componentType" : 5126,
            "count" : 640,
            "max" : [
                6.277432918548584,
                1.3846369981765747,
                1.3846379518508911
            ],
            "min" : [
                -4.534026145935059,
                -1.3846369981765747,
                -1.3846369981765747
            ],
            "type" : "VEC3"
        },
        {
            "bufferView" : 16,
            "componentType" : 5126,
            "count" : 640,
            "type" : "VEC3"
        },
        {
            "bufferView" : 17,
            "componentType" : 5123,
            "count" : 1920,
            "type" : "SCALAR"
        },
        {
            "bufferView" : 18,
            "componentType" : 5126,
            "count" : 64,
            "max" : [
                6.020977973937988,
                1.3846369981765747,
                1.3846379518508911
            ],
            "min" : [
                -4.270246982574463,
                -1.3846369981765747,
                -1.3846379518508911
            ],
            "type" : "VEC3"
        },
        {
            "bufferView" : 19,
            "componentType" : 5126,
            "count" : 64,
            "type" : "VEC3"
        },
        {
            "bufferView" : 20,
            "componentType" : 5123,
            "count" : 192,
            "type" : "SCALAR"
        }
    ],
    "bufferViews" : [
        {
            "buffer" : 0,
            "byteLength" : 1152,
            "byteOffset" : 0
        },
        {
            "buffer" : 0,
            "byteLength" : 1152,
            "byteOffset" : 1152
        },
        {
            "buffer" : 0,
            "byteLength" : 1128,
            "byteOffset" : 2304
        },
        {
            "buffer" : 0,
            "byteLength" : 3072,
            "byteOffset" : 3432
        },
        {
            "buffer" : 0,
            "byteLength" : 3072,
            "byteOffset" : 6504
        },
        {
            "buffer" : 0,
            "byteLength" : 1536,
            "byteOffset" : 9576
        },
        {
            "buffer" : 0,
            "byteLength" : 2304,
            "byteOffset" : 11112
        },
        {
            "buffer" : 0,
            "byteLength" : 2304,
            "byteOffset" : 13416
        },
        {
            "buffer" : 0,
            "byteLength" : 1152,
            "byteOffset" : 15720
        },
        {
            "buffer" : 0,
            "byteLength" : 1536,
            "byteOffset" : 16872
        },
        {
            "buffer" : 0,
            "byteLength" : 1536,
            "byteOffset" : 18408
        },
        {
            "buffer" : 0,
            "byteLength" : 948,
            "byteOffset" : 19944
        },
        {
            "buffer" : 0,
            "byteLength" : 6600,
            "byteOffset" : 20892
        },
        {
            "buffer" : 0,
            "byteLength" : 6600,
            "byteOffset" : 27492
        },
        {
            "buffer" : 0,
            "byteLength" : 3480,
            "byteOffset" : 34092
        },
        {
            "buffer" : 0,
            "byteLength" : 7680,
            "byteOffset" : 37572
        },
        {
            "buffer" : 0,
            "byteLength" : 7680,
            "byteOffset" : 45252
        },
        {
            "buffer" : 0,
            "byteLength" : 3840,
            "byteOffset" : 52932
        },
        {
            "buffer" : 0,
            "byteLength" : 768,
            "byteOffset" : 56772
        },
        {
            "buffer" : 0,
            "byteLength" : 768,
            "byteOffset" : 57540
        },
        {
            "buffer" : 0,
            "byteLength" : 384,
            "byteOffset" : 58308
        }
    ],
    "buffers" : [
        {
            "byteLength" : 58692,
            "uri" : "data:application/octet-stream;base64,"
        }
    ]
}
