{
    "asset" : {
        "generator" : "Khronos glTF Blender I/O v1.6.16",
        "version" : "2.0"
    },
    "scene" : 0,
    "scenes" : [
        {
            "name" : "Scene",
            "nodes" : [
                0,
                1,
                2
            ]
        }
    ],
    "nodes" : [
        {
            "name" : "Light",
            "rotation" : [
                0.16907575726509094,
                0.7558803558349609,
                -0.27217137813568115,
                0.570947527885437
            ],
            "translation" : [
                4.076245307922363,
                5.903861999511719,
                -1.0054539442062378
            ]
        },
        {
            "name" : "Camera",
            "rotation" : [
                0.483536034822464,
                0.33687159419059753,
                -0.20870360732078552,
                0.7804827094078064
            ],
            "translation" : [
                7.358891487121582,
                4.958309173583984,
                6.925790786743164
            ]
        },
        {
            "mesh" : 0,
            "name" : "Icosphere_Baked"
        }
    ],
    "materials" : [
        {
            "doubleSided" : true,
            "name" : "Icosphere_baked",
            "pbrMetallicRoughness" : {}
        }
    ],
    "meshes" : [
        {
            "name" : "Icosphere.002",
            "primitives" : [
                {
                    "attributes" : {
                        "POSITION" : 0,
                        "NORMAL" : 1,
                        "TEXCOORD_0" : 2
                    },
                    "indices" : 3,
                    "material" : 0
                }
            ]
        }
    ],
    "accessors" : [
        {
            "bufferView" : 0,
            "componentType" : 5126,
            "count" : 11926,
            "max" : [
                1.0392422676086426,
                1.0242196321487427,
                1.0112804174423218
            ],
            "min" : [
                -1.0392422676086426,
                -1.0242196321487427,
                -1.0112786293029785
            ],
            "type" : "VEC3"
        },
        {
            "bufferView" : 1,
            "componentType" : 5126,
            "count" : 11926,
            "type" : "VEC3"
        },
        {
            "bufferView" : 2,
            "componentType" : 5126,
            "count" : 11926,
            "type" : "VEC2"
        },
        {
            "bufferView" : 3,
            "componentType" : 5123,
            "count" : 29376,
            "type" : "SCALAR"
        }
    ],
    "bufferViews" : [
        {
            "buffer" : 0,
            "byteLength" : 143112,
            "byteOffset" : 0
        },
        {
            "buffer" : 0,
            "byteLength" : 143112,
            "byteOffset" : 143112
        },
        {
            "buffer" : 0,
            "byteLength" : 95408,
            "byteOffset" : 286224
        },
        {
            "buffer" : 0,
            "byteLength" : 58752,
            "byteOffset" : 381632
        }
    ],
    "buffers" : [
        {
            "byteLength" : 440384,
            "uri" : "data:application/octet-stream;base64,"
        }
    ]
}
